<svg width="61" height="61" viewBox="0 0 61 61" fill="none" xmlns="http://www.w3.org/2000/svg">
<mask id="mask0_416_37" style="mask-type:luminance" maskUnits="userSpaceOnUse" x="0" y="0" width="61" height="61">
<path d="M0.521057 0.152222H60.5211V60.1522H0.521057V0.152222Z" fill="white"/>
</mask>
<g mask="url(#mask0_416_37)">
<path fill-rule="evenodd" clip-rule="evenodd" d="M1.28278 59.3905H45.6734L16.6226 29.9296L46.775 29.9647L1.29449 0.91394V59.3905H1.28278Z" fill="#CE0000" stroke="#000063" stroke-width="1.61719"/>
<path fill-rule="evenodd" clip-rule="evenodd" d="M21.6968 43.7225L18.5328 44.7772L21.0172 47.0975L17.6773 46.8866L19.0484 49.9569L16.0601 48.5155L16.1187 51.8671L13.9156 49.4178L12.6617 52.535L11.5836 49.453L9.20465 51.8671L9.41559 48.621L6.26324 49.9569L7.73981 47.0272L4.30621 47.0975L6.82574 44.953L3.62653 43.7225L6.79059 42.6678L4.29449 40.3475L7.62262 40.5585L6.26324 37.4882L9.26324 38.9296L9.20465 35.578L11.4078 38.0272L12.6617 34.91L13.7281 37.9921L16.1187 35.578L15.8961 38.8241L19.0601 37.4882L17.5718 40.4178L21.0172 40.3475L18.4976 42.4921L21.6968 43.7225ZM17.9 22.078L16.5757 23.0624L17.232 23.6014C18.772 22.5257 20.0106 21.0733 20.8297 19.3827C21.0406 21.8788 18.7554 27.4686 12.7789 27.5272C11.6865 27.5412 10.6022 27.3386 9.58849 26.9313C8.57481 26.5239 7.65184 25.9199 6.87284 25.154C6.09384 24.388 5.47425 23.4754 5.04982 22.4688C4.62538 21.4621 4.40452 20.3814 4.39996 19.2889C5.57184 21.4218 6.2984 22.453 8.14996 23.5663L8.70074 23.0507L7.45856 22.0077L9.06403 21.5858L8.19684 20.1327L9.88434 20.2499L9.6734 18.5624L11.15 19.4296L11.6187 17.8475L12.6734 19.1132L13.6695 17.9061L14.2086 19.5468L15.5914 18.5858L15.4156 20.2616L17.0797 20.0624L16.2945 21.6093L17.9 22.078Z" fill="white"/>
</g>
</svg>
